<svg id="Layer_1" data-name="Layer 1" xmlns="http://www.w3.org/2000/svg" xmlns:xlink="http://www.w3.org/1999/xlink" viewBox="0 0 384.8 816.2"><defs><style>.cls-1,.cls-11,.cls-20,.cls-23,.cls-24,.cls-29{fill:none;}.cls-2{fill:#f4f4f4;}.cls-3{fill:#31576c;}.cls-4{fill:#c4a497;}.cls-12,.cls-13,.cls-14,.cls-16,.cls-17,.cls-21,.cls-22,.cls-25,.cls-30,.cls-5,.cls-6,.cls-7,.cls-8{isolation:isolate;}.cls-12,.cls-13,.cls-21,.cls-22,.cls-25,.cls-6{font-size:16px;}.cls-10,.cls-15,.cls-6,.cls-8{fill:#fff;}.cls-13,.cls-14,.cls-6,.cls-8{font-family:PingFangHK-Semibold-B5pc-H, PingFang HK;font-weight:700;}.cls-7{font-size:14px;text-decoration:underline;}.cls-12,.cls-13,.cls-16,.cls-21,.cls-7{fill:#707070;}.cls-21,.cls-22,.cls-25,.cls-7{font-family:PingFangTC-Medium-B5pc-H, PingFang TC;}.cls-14,.cls-8{font-size:22px;}.cls-9{clip-path:url(#clip-path);}.cls-11{stroke:#707070;}.cls-12,.cls-16,.cls-17{font-family:PingFangTC-Regular-B5pc-H, PingFang TC;}.cls-15{stroke:#d2d2d2;stroke-miterlimit:10;}.cls-16,.cls-17{font-size:9px;}.cls-17{fill:#55c8d0;}.cls-18{fill:#acacac;}.cls-19,.cls-25{fill:#ac6c53;}.cls-20{stroke:#55c8d0;stroke-linecap:round;stroke-linejoin:round;stroke-width:2px;}.cls-22{fill:#303d4d;}.cls-23{stroke:#303d4d;}.cls-24{stroke:#ac6c53;}.cls-26{opacity:0.3;}.cls-27{fill:#363636;}.cls-28{opacity:0.4;}.cls-29{stroke:#000;}.cls-30{font-size:15px;font-family:Helvetica, Helvetica;}.cls-31{fill:#3e3a39;}</style><clipPath id="clip-path"><rect class="cls-1" x="11.9" y="211.8" width="361" height="98"/></clipPath></defs><title>App</title><path class="cls-2" d="M18.1,798a41.2,41.2,0,0,0,12.6,8.5,40.3,40.3,0,0,0,15.4,3.1H338.7a40.3,40.3,0,0,0,15.4-3.1,41.2,41.2,0,0,0,12.6-8.5,39.3,39.3,0,0,0,8.4-12.5,38.9,38.9,0,0,0,3.1-15.4V94H6.6V770.1a38.9,38.9,0,0,0,3.1,15.4A39.3,39.3,0,0,0,18.1,798Z"/><g id="Group_4731" data-name="Group 4731"><rect id="漸層" class="cls-3" x="4.9" y="88.8" width="375" height="156"/><path id="背景" class="cls-2" d="M20.9,202.8h343a16,16,0,0,1,16,16V773.1a39.7,39.7,0,0,1-39.7,39.7H44.6A39.7,39.7,0,0,1,4.9,773.1V218.8A16,16,0,0,1,20.9,202.8Z"/><g id="立即申貸按鈕"><rect id="Rectangle_284-2" data-name="Rectangle 284-2" class="cls-4" x="20.9" y="644.8" width="343" height="58" rx="16" ry="16"/><g id="立即申貸" class="cls-5"><text class="cls-6" transform="translate(164.9 679.3)">立即申貸</text></g></g><g id="查看借款利率" class="cls-5"><text class="cls-7" transform="translate(150.9 625.8)">查看借款利率</text></g><g id="您好_許美侖小姐" data-name="您好 許美侖小姐" class="cls-5"><text class="cls-8" transform="translate(34.9 162.8)">您好，許美侖小姐</text></g><g id="加入雙城_今天開始扭轉人生" data-name="加入雙城 今天開始扭轉人生" class="cls-5"><text class="cls-6" transform="translate(34.9 187.8)">加入雙城，今天開始扭轉人生</text></g><g class="cls-9"><g id="Repeat_Grid_7" data-name="Repeat Grid 7"><g id="Group_4109" data-name="Group 4109"><g id="Group_4108" data-name="Group 4108"><rect id="Rectangle_353-3" data-name="Rectangle 353-3" class="cls-10" x="20.9" y="220.8" width="343" height="80" rx="16" ry="16"/><g id="Rectangle_361" data-name="Rectangle 361"><path class="cls-1" d="M290.9,244.8h36a16,16,0,0,1,16,16h0a16,16,0,0,1-16,16h-36a16,16,0,0,1-16-16h0A16,16,0,0,1,290.9,244.8Z"/><path class="cls-11" d="M290.9,245.3h36a15.4,15.4,0,0,1,15.5,15.5h0a15.4,15.4,0,0,1-15.5,15.5h-36a15.4,15.4,0,0,1-15.5-15.5h0A15.4,15.4,0,0,1,290.9,245.3Z"/></g><g id="申請日期" class="cls-5"><text class="cls-12" transform="translate(40.9 255.8)">申請日期</text></g><g id="_108_09_13" data-name=" 108 09 13" class="cls-5"><text class="cls-13" transform="translate(40.9 277.8)">108/09/13</text></g><g id="_12_000" data-name=" 12 000" class="cls-5"><text class="cls-14" transform="translate(145.9 267.8)">$12,000</text></g><g id="審核中" class="cls-5"><text class="cls-13" transform="translate(284.9 266.8)">審核中</text></g></g></g><g id="Group_4109-2" data-name="Group 4109-2"><g id="Group_4108-2" data-name="Group 4108-2"><rect id="Rectangle_353-4" data-name="Rectangle 353-4" class="cls-10" x="20.9" y="317.8" width="343" height="80" rx="16" ry="16"/><g id="Rectangle_361-2" data-name="Rectangle 361-2"><path class="cls-1" d="M290.9,341.8h36a16,16,0,0,1,16,16h0a16,16,0,0,1-16,16h-36a16,16,0,0,1-16-16h0A16,16,0,0,1,290.9,341.8Z"/><path class="cls-11" d="M290.9,342.3h36a15.4,15.4,0,0,1,15.5,15.5h0a15.4,15.4,0,0,1-15.5,15.5h-36a15.4,15.4,0,0,1-15.5-15.5h0A15.4,15.4,0,0,1,290.9,342.3Z"/></g><g id="申請日期-2" class="cls-5"><text class="cls-12" transform="translate(40.9 352.8)">申請日期</text></g><g id="_108_09_13-2" data-name=" 108 09 13-2" class="cls-5"><text class="cls-13" transform="translate(40.9 374.8)">108/09/13</text></g><g id="_12_000-2" data-name=" 12 000-2" class="cls-5"><text class="cls-14" transform="translate(145.9 364.8)">$12,000</text></g><g id="還款中" class="cls-5"><text class="cls-13" transform="translate(284.9 363.8)">還款中</text></g></g></g></g></g><g id="ToolBar"><path id="Path_2060-2" data-name="Path 2060-2" class="cls-15" d="M4.9,724.8h375v48.5a39.5,39.5,0,0,1-39.5,39.5H44.4A39.5,39.5,0,0,1,4.9,773.3Z"/><g id="幫助" class="cls-5"><text class="cls-16" transform="translate(65.9 766.8)">幫助</text></g><g id="首頁" class="cls-5"><text class="cls-17" transform="translate(221.9 767.8)">首頁</text></g><g id="帳戶" class="cls-5"><text class="cls-16" transform="translate(143.9 767.8)">帳戶</text></g><g id="通知" class="cls-5"><text class="cls-16" transform="translate(299.9 767.8)">通知</text></g><g id="ToolbarHelp"><path id="Path_2104" data-name="Path 2104" class="cls-18" d="M75.2,732.8A11.3,11.3,0,1,0,86.4,744h0A11.2,11.2,0,0,0,75.2,732.8Zm0,20.7a9.5,9.5,0,1,1,9.4-9.5A9.4,9.4,0,0,1,75.2,753.5Z"/><path id="Path_2105" data-name="Path 2105" class="cls-18" d="M75.4,738a4.5,4.5,0,0,0-4.8,4.3.9.9,0,0,0,.8.9.9.9,0,0,0,.9-.9,3.1,3.1,0,0,1,3.6-2.5,3.2,3.2,0,0,1,2.5,2.5,2.8,2.8,0,0,1-2.2,2.4h0a2.5,2.5,0,0,0-2,2.5.9.9,0,0,0,.8.9.9.9,0,0,0,.9-.9c.1-.4.4-.8.8-.8h0a4.3,4.3,0,0,0,3.4-4.1A4.5,4.5,0,0,0,75.4,738Z"/><path id="Path_2106" data-name="Path 2106" class="cls-18" d="M75,749.2a.9.9,0,0,0-.8.9h0v.3a.9.9,0,0,0,.8.9.9.9,0,0,0,.9-.9h0v-.3a.9.9,0,0,0-.9-.9Z"/></g><path id="Toolbarmsg" class="cls-18" d="M319.6,750.9a2,2,0,0,0-.4-.8,3.7,3.7,0,0,1-.8-2.2v-2.5h0a7.6,7.6,0,0,0-.3-2.1,9.2,9.2,0,0,0-5.1-5.8v-.2a4,4,0,0,0-5.2-2.1,4.3,4.3,0,0,0-2.1,2.1v.2a9.2,9.2,0,0,0-5.1,5.8,7.1,7.1,0,0,0-.3,2.1v.2a.3.3,0,0,1-.1.2c0,.1.1.2.1.3v1.9a3.5,3.5,0,0,1-.8,2.2,1.2,1.2,0,0,0-.4.8h0v.5c.4,1.6,3.6,2.3,6.4,2.5a3.9,3.9,0,0,0,4.7,3,4,4,0,0,0,3-3c2.7-.2,6-.9,6.4-2.5v-.5Zm-10.4,4.3a2.2,2.2,0,0,1-1.8-1h3.7A2.3,2.3,0,0,1,309.2,755.2Zm0-2.8c-5,0-7.9-.9-8.4-1.4a5,5,0,0,0,1-3.1v-2.6a4.5,4.5,0,0,1,.3-1.6,7.7,7.7,0,0,1,4.2-4.8h.2l.7-.7V738a2.2,2.2,0,0,1,2.8-1.3,2.1,2.1,0,0,1,1.3,1.3v.2l.7.7h.2a7.7,7.7,0,0,1,4.2,4.8,4.5,4.5,0,0,1,.3,1.6v2.6a5,5,0,0,0,1,3.1C317,751.5,314.1,752.4,309.2,752.4Z"/><g id="ToolbarAccount"><path id="Path_2107" data-name="Path 2107" class="cls-18" d="M152.8,744.3A5.2,5.2,0,0,0,158,739a5.2,5.2,0,0,0-5.2-5.2,5.2,5.2,0,0,0-5.3,5.2h0A5.4,5.4,0,0,0,152.8,744.3Zm0-8.7a3.5,3.5,0,1,1,0,6.9,3.5,3.5,0,0,1-3.5-3.5A3.5,3.5,0,0,1,152.8,735.6Z"/><path id="Path_2108" data-name="Path 2108" class="cls-18" d="M156.2,745.7h-1.1a5.5,5.5,0,0,1-4.7,0h-1a6.5,6.5,0,0,0-6.5,6.5v1.4l.7.2a40.8,40.8,0,0,0,18.4,0l.7-.2v-1.4A6.5,6.5,0,0,0,156.2,745.7Zm4.7,6.6a44.1,44.1,0,0,1-16.2,0h0a4.8,4.8,0,0,1,4.7-4.8h.4a6.8,6.8,0,0,0,5.9,0h.5a4.8,4.8,0,0,1,4.7,4.8Z"/></g><g id="客服"><path id="Path_5161-2" data-name="Path 5161-2" class="cls-19" d="M363.9,698.7V677.4a12.7,12.7,0,0,0-12.7-12.8H315.9a2,2,0,0,0-2,2,2.9,2.9,0,0,0,.2.9l3,6.5v24.7a12.7,12.7,0,0,0,12.8,12.7h21.3A12.7,12.7,0,0,0,363.9,698.7Z"/><g id="Group_4667" data-name="Group 4667"><path id="Path_5162" data-name="Path 5162" class="cls-10" d="M359.5,705.3a21.7,21.7,0,0,0-14.4-5.1h-9.5a21.7,21.7,0,0,0-14.4,5.1.8.8,0,0,0-.1,1.1h0a.7.7,0,0,0,1.1.1h0a20.7,20.7,0,0,1,13.4-4.7h9.5a20.5,20.5,0,0,1,13.4,4.7c.1.2.3.2.5.2a.8.8,0,0,0,.5-1.4Z"/><path id="Path_5163" data-name="Path 5163" class="cls-10" d="M345.2,689.2l-.5.2a6.2,6.2,0,0,1-7.3-.2h-.5a.7.7,0,0,0-.6.3.8.8,0,0,0,.1,1.1,8,8,0,0,0,4.7,1.5,7.3,7.3,0,0,0,4.5-1.4.7.7,0,0,0,.2-1.1h0A.7.7,0,0,0,345.2,689.2Z"/><path id="Path_5164" data-name="Path 5164" class="cls-10" d="M328.9,691.5h1.4a7.4,7.4,0,0,0,7.5,7.3h6.4a7.5,7.5,0,0,0,7.5-7.3h1.5a3.1,3.1,0,0,0,3.1-3.1v-3.6a3.1,3.1,0,0,0-1.9-2.8v-1.1c0-4.9-4.6-9.2-9.7-9.2h-7.4c-4.5,0-9.7,4-9.7,9.2V682a3.1,3.1,0,0,0-1.8,2.8v3.6A3.1,3.1,0,0,0,328.9,691.5Zm21.2-.2a6,6,0,0,1-5.9,6h-6.4a6.1,6.1,0,0,1-6-6v-8.9a6,6,0,0,1,6-6h6.4a5.9,5.9,0,0,1,5.9,6Zm4.6-6.5v3.6a1.5,1.5,0,0,1-1.5,1.5h-.8v-6.6h.8a1.5,1.5,0,0,1,1.5,1.5Zm-25.5-3.9c0-4.3,4.4-7.7,8.1-7.7h7.4c3.8,0,8.1,3.3,8.1,7.7v.8h-1.2a7.6,7.6,0,0,0-7.4-6.9h-6.4a7.7,7.7,0,0,0-7.5,6.9h-1.1Zm-1.8,3.9a1.5,1.5,0,0,1,1.5-1.5h.8v6.6h-.8a1.5,1.5,0,0,1-1.5-1.5Z"/></g></g><path id="Path_5338" data-name="Path 5338" class="cls-20" d="M230.1,733.8a10.5,10.5,0,1,0,10.5,10.5,10.6,10.6,0,0,0-10.5-10.5Zm3.3,13.9h-6.7v-6.8h6.7Z"/></g><g id="Group_4729" data-name="Group 4729"><g id="Group_4138" data-name="Group 4138"><rect id="Rectangle_286-2" data-name="Rectangle 286-2" class="cls-15" x="20.9" y="220.8" width="343" height="80" rx="16" ry="16"/><g id="申請日期-3" class="cls-5"><text class="cls-21" transform="translate(40.9 255.8)">申請日期</text></g><g id="_108_09_13-3" data-name=" 108 09 13-3" class="cls-5"><text class="cls-21" transform="translate(40.9 277.8)">108/09/13</text></g><g id="_12_000-3" data-name=" 12 000-3" class="cls-5"><text class="cls-14" transform="translate(145.9 268.8)">$12,000</text></g><g id="還款中-2" class="cls-5"><text class="cls-22" transform="translate(284.9 266.8)">還款中</text></g><g id="Rectangle_326" data-name="Rectangle 326"><path class="cls-1" d="M290.9,244.8h36a16,16,0,0,1,16,16h0a16,16,0,0,1-16,16h-36a16,16,0,0,1-16-16h0A16,16,0,0,1,290.9,244.8Z"/><path class="cls-23" d="M290.9,245.3h36a15.4,15.4,0,0,1,15.5,15.5h0a15.4,15.4,0,0,1-15.5,15.5h-36a15.4,15.4,0,0,1-15.5-15.5h0A15.4,15.4,0,0,1,290.9,245.3Z"/></g></g><g id="Group_4096" data-name="Group 4096"><rect id="Rectangle_327-2" data-name="Rectangle 327-2" class="cls-15" x="20.9" y="315.8" width="343" height="80" rx="16" ry="16"/><g id="Rectangle_328" data-name="Rectangle 328"><path class="cls-1" d="M290.9,339.8h36a16,16,0,0,1,16,16h0a16,16,0,0,1-16,16h-36a16,16,0,0,1-16-16h0A16,16,0,0,1,290.9,339.8Z"/><path class="cls-23" d="M290.9,340.3h36a15.4,15.4,0,0,1,15.5,15.5h0a15.4,15.4,0,0,1-15.5,15.5h-36a15.4,15.4,0,0,1-15.5-15.5h0A15.4,15.4,0,0,1,290.9,340.3Z"/></g><g id="申請日期-4" class="cls-5"><text class="cls-21" transform="translate(40.9 350.8)">申請日期</text></g><g id="_109_05_16" data-name=" 109 05 16" class="cls-5"><text class="cls-21" transform="translate(40.9 372.8)">109/05/16</text></g><g id="_12_000-4" data-name=" 12 000-4" class="cls-5"><text class="cls-14" transform="translate(145.9 363.8)">$12,000</text></g><g id="已結清" class="cls-5"><text class="cls-22" transform="translate(284.9 361.8)">已結清</text></g></g><g id="Group_4122" data-name="Group 4122"><rect id="Rectangle_357-2" data-name="Rectangle 357-2" class="cls-15" x="20.9" y="410.8" width="343" height="80" rx="16" ry="16"/><g id="Rectangle_356" data-name="Rectangle 356"><path class="cls-1" d="M258.9,434.8h68a16,16,0,0,1,16,16h0a16,16,0,0,1-16,16h-68a16,16,0,0,1-16-16h0A16,16,0,0,1,258.9,434.8Z"/><path class="cls-24" d="M258.9,435.3h68a15.4,15.4,0,0,1,15.5,15.5h0a15.4,15.4,0,0,1-15.5,15.5h-68a15.4,15.4,0,0,1-15.5-15.5h0A15.4,15.4,0,0,1,258.9,435.3Z"/></g><g id="申請日期-5" class="cls-5"><text class="cls-21" transform="translate(40.9 445.8)">申請日期</text></g><g id="_109_12_22" data-name=" 109 12 22" class="cls-5"><text class="cls-21" transform="translate(40.9 467.8)">109/12/22</text></g><g id="_12_000-5" data-name=" 12 000-5" class="cls-5"><text class="cls-14" transform="translate(145.9 457.8)">$12,000</text></g><g id="申請未完成" class="cls-5"><text class="cls-25" transform="translate(251.9 455.8)">申請未完成</text></g></g></g></g><path class="cls-10" d="M9.7,30.7A38.5,38.5,0,0,0,6.6,46.1V94H378.2V46.1a38.5,38.5,0,0,0-3.1-15.4,40.9,40.9,0,0,0-8.4-12.6,40.9,40.9,0,0,0-12.6-8.4,38.5,38.5,0,0,0-15.4-3.1H301.5a4.6,4.6,0,0,0-1.8,1.3,7.1,7.1,0,0,0-1.6,2.8c-.1.7-.3,1.5-.5,2.5h0a57.8,57.8,0,0,1-1.6,6.7,19.1,19.1,0,0,1-4.7,8,18.7,18.7,0,0,1-5.5,3.8,21.2,21.2,0,0,1-8.3,1.6H109.8a21.9,21.9,0,0,1-8.3-1.6A18.7,18.7,0,0,1,96,27.9a19.1,19.1,0,0,1-4.7-8c-.7-2.4-1.2-4.8-1.6-6.7s-.4-1.8-.5-2.5a7.1,7.1,0,0,0-1.6-2.8,6.8,6.8,0,0,0-1.8-1.3H46.1A38.5,38.5,0,0,0,30.7,9.7a40.9,40.9,0,0,0-12.6,8.4A40.9,40.9,0,0,0,9.7,30.7Z"/><g id="Home_Bar_-_Light" data-name="Home Bar - Light" class="cls-26"><path id="Rectangle_156" data-name="Rectangle 156" class="cls-27" d="M131.5,795h125a2.5,2.5,0,0,1,2.5,2.5h0a2.5,2.5,0,0,1-2.5,2.5h-125a2.5,2.5,0,0,1-2.5-2.5h0A2.5,2.5,0,0,1,131.5,795Z"/></g><g id="Status_Bar_-_Light" data-name="Status Bar - Light"><path id="Subtraction_13" data-name="Subtraction 13" class="cls-1" d="M381,46H6V44A38,38,0,0,1,43.9,6H84a6.7,6.7,0,0,1,3.6,1.9,7.1,7.1,0,0,1,1.6,2.8c.1.7.3,1.5.5,2.5s.9,4.3,1.6,6.7a19.1,19.1,0,0,0,4.7,8,18.7,18.7,0,0,0,5.5,3.8,21.9,21.9,0,0,0,8.3,1.6H277.5a21.2,21.2,0,0,0,8.3-1.6,18.7,18.7,0,0,0,5.5-3.8,19.1,19.1,0,0,0,4.7-8,57.8,57.8,0,0,0,1.6-6.7h0c.2-1,.4-1.8.5-2.5a7.1,7.1,0,0,1,1.6-2.8A6.3,6.3,0,0,1,303.3,6H343a38,38,0,0,1,38,37.9h0Z"/><g id="Group_5" data-name="Group 5"><path id="Wifi" d="M329.5,22.8a9.6,9.6,0,0,1,6.3,2.3l1.2-1.3a11.3,11.3,0,0,0-15,0l1.2,1.3a9.6,9.6,0,0,1,6.3-2.3Zm0,3.7a5.8,5.8,0,0,1,3.8,1.3l1.2-1.3a7.7,7.7,0,0,0-10.1,0l1.3,1.3a5.8,5.8,0,0,1,3.8-1.3Zm2.6,2.7a4,4,0,0,0-5.2,0l2.6,2.7,2.6-2.7Z"/><path id="Mobile-Signal" d="M313.1,21.5a.6.6,0,0,1,.6-.6h1.7a.6.6,0,0,1,.6.6h0v9.9a.6.6,0,0,1-.6.5h-1.7c-.4,0-.6-.2-.6-.5h0Zm-4.7,2.9a.6.6,0,0,1,.6-.6h1.7a.6.6,0,0,1,.6.6v7a.6.6,0,0,1-.6.5H309c-.4,0-.6-.2-.6-.5Zm-4.7,2.3a.5.5,0,0,1,.6-.5H306a.5.5,0,0,1,.6.5h0v4.7c0,.3-.2.5-.6.5h-1.7a.6.6,0,0,1-.6-.5h0ZM299,29a.6.6,0,0,1,.6-.5h1.7c.4,0,.6.2.6.5h0v2.4c0,.3-.2.5-.6.5h-1.7a.6.6,0,0,1-.6-.5h0Z"/><g id="Battery"><path id="Tip" d="M363,24.9a1.9,1.9,0,0,1,1.5,1.8,1.7,1.7,0,0,1-1.5,1.7Z"/><rect id="Fill" x="345" y="23.9" width="15" height="5.5" rx="1" ry="1"/><g id="Outline" class="cls-28"><rect class="cls-1" x="343" y="21.9" width="19" height="9.5" rx="2.5" ry="2.5"/><rect class="cls-29" x="343.5" y="22.4" width="18" height="8.5" rx="2" ry="2"/></g></g></g><g id="_9:41_AM" data-name=" 9:41 AM" class="cls-5"><text class="cls-30" transform="translate(40.8 32.2)">9:41</text></g></g><g id="Group_4703" data-name="Group 4703"><g id="Group_4708" data-name="Group 4708"><g id="Group_4703-2" data-name="Group 4703-2"><path id="Path_5318" data-name="Path 5318" class="cls-31" d="M189.5,78.9a2.3,2.3,0,0,1,.2-1.2,3.6,3.6,0,0,1,.7-1,3.1,3.1,0,0,1,2.2-.9h.7l.5.2h.5v1h-.1c-.1-.1-.1-.3-.2-.4l-.3-.4c-.1-.2-.3-.3-.4-.4h-.6l-.7.2-.5.6-.3.9c0,.4-.1.8-.1,1.1a4.3,4.3,0,0,0,.2,1.1,1.3,1.3,0,0,0,.4.7l.6.5,1,.2h.6l.6-.2h.1a2.4,2.4,0,0,1-.9.6l-1.2.2-1.3-.2a2.6,2.6,0,0,1-1.5-1.7A1.4,1.4,0,0,1,189.5,78.9Z"/><path id="Path_5319" data-name="Path 5319" class="cls-31" d="M196.9,77.7l.8.2.7.4a4.3,4.3,0,0,1,.4.7,1.9,1.9,0,0,1,.1.8,1.9,1.9,0,0,1-2.1,2.1l-.8-.2-.7-.4a1.6,1.6,0,0,1-.4-.7,1.9,1.9,0,0,1-.1-.8,2.5,2.5,0,0,1,.1-.8,2.2,2.2,0,0,1,2-1.3Zm-.1,4a.5.5,0,0,0,.4-.2l.3-.4c0-.2.1-.4.1-.6a3.3,3.3,0,0,0,0-1.4c0-.2-.1-.4-.1-.6l-.3-.4a.5.5,0,0,0-.7,0l-.3.4a1.3,1.3,0,0,0-.1.6,3.3,3.3,0,0,0,0,1.4,1.3,1.3,0,0,0,.1.6l.3.4.3.2Z"/><path id="Path_5320" data-name="Path 5320" class="cls-31" d="M206.3,81.7h-1.8v-.2a.4.4,0,0,0,.1-.3V78.8c0-.2-.1-.3-.1-.4a.7.7,0,0,0-.6-.3h-.3c-.1,0-.1.1-.2.2v3l.2.2h.2a.1.1,0,0,1,.1.1h-2.2a.1.1,0,0,1,.1-.1h.2l.2-.2V78.8c0-.2-.1-.3-.1-.4l-.2-.2H201c0,.1-.1.2-.1.3v2.5a.4.4,0,0,0,.1.3v.2h-1.9a.1.1,0,0,1,.1-.1h.2l.2-.2V78.7h0l.4-.2.3-.2.4-.2h.1v.3l.5-.3h1.4l.2.2.2.2.2-.2.3-.2h1.4l.4.2.2.3a.6.6,0,0,1,.1.4.4.4,0,0,1,.1.3v2.4l.2.2h.1C206.3,81.6,206.3,81.6,206.3,81.7Z"/><path id="Path_5321" data-name="Path 5321" class="cls-31" d="M209.6,77.7h.6a2.4,2.4,0,0,1,.8.6l.2.5v.8a2.8,2.8,0,0,1-.1.9,1.6,1.6,0,0,1-.4.7.9.9,0,0,1-.6.4l-.8.2h-1.2v1.6l.2.2h-1.7l.2-.2V78.6H207l.4-.2.4-.2.3-.2h.1v.5a.1.1,0,0,0,.1.1h0c0-.1.1-.1.1-.2l.3-.2.4-.2Zm.5,2.2v-.2c0-.1-.1-.3-.1-.4v-.4l-.2-.3-.3-.3h-.3l-.5.2-.3.2c-.1.1-.1.2-.1.4v1.4c0,.2.1.3.1.4s.1.3.1.4l.3.3h.8c.2-.1.3-.2.3-.4a.8.8,0,0,0,.2-.5c0-.2.1-.4.1-.7Z"/><path id="Path_5322" data-name="Path 5322" class="cls-31" d="M215.5,81.4h-1.2l-.3-.3h-1.7l-.4-.3-.3-.4v-.4a.7.7,0,0,1,.2-.6,1,1,0,0,1,.5-.4h1c.1-.1.3-.1.3-.2s.2-.1.3-.3v-.6c0-.1-.1-.1-.1-.2s-.1-.1-.2-.2-.3,0-.4.1l-.2.2a.4.4,0,0,1-.1.3c0,.1,0,.2-.1.2l-.2.2H212c0-.1-.1-.1-.1-.2v-.5l.3-.2.4-.2h.7a1.4,1.4,0,0,1,.9.1l.5.2c.2.2.3.3.3.5a1.3,1.3,0,0,1,.1.6v2c0,.1,0,.2.1.2h.3Zm-1.6-2h-.3l-.2.2h-.2c0,.1-.1.1-.1.2l-.2.3v.3c0,.1.1.1.1.2s0,.2.1.2l.2.2h.5c0-.1.1-.1.1-.2s.1-.1.1-.2h0Z"/><path id="Path_5323" data-name="Path 5323" class="cls-31" d="M220.6,81.7h-1.7c0-.1.1-.2.1-.3V79.2c0-.1-.1-.2-.1-.4a.4.4,0,0,0-.1-.3.7.7,0,0,0-1-.3l-.2.3v2.6a.4.4,0,0,0,.1.3h.3c.1,0,.1,0,.1.1h-1.7V78.7h0l.4-.2.4-.2.3-.2h.1v.4l.2-.2h1.6l.4.2.3.3c0,.1.1.3.1.4v2.4c0,.1.1.2.1.3h.3C220.6,81.6,220.6,81.6,220.6,81.7Z"/><path id="Path_5324" data-name="Path 5324" class="cls-31" d="M221.7,82.8l.6-1.3c-.1-.1-.1-.2-.2-.4l-.3-.6c-.1-.2-.1-.4-.2-.6l-.3-.6-.2-.5a.3.3,0,0,1-.1-.2l-.2-.3h-.1a.1.1,0,0,0-.1-.1h1.7c0,.1-.1.1-.1.2v.2a.3.3,0,0,1,.1.2.4.4,0,0,1,.1.3l.2.4c0,.1.1.2.1.3v.2h.2c0-.1,0-.1.1-.2s.1-.2.1-.4V79a.4.4,0,0,0,.1-.3c0-.1.1-.1.1-.2v-.4h.9a.1.1,0,0,0-.1.1H224c0,.1-.1.2-.1.3v.2c-.1.1-.1.3-.2.5l-.3.5-.3.6-.2.6c-.1.2-.2.3-.2.5l-.8,1.6c0,.2-.2.4-.3.6l-.5.2h-.5v-.5h1.1C221.6,82.9,221.7,82.9,221.7,82.8Z"/></g><g id="Group_4704" data-name="Group 4704"><path id="Path_5325" data-name="Path 5325" class="cls-31" d="M163.1,45.3v1.2H163a.1.1,0,0,1-.1-.1h0c-.1-.1-.1-.2-.2-.2s-.1-.2-.1-.3l-.3-.2-.4-.2c-.1,0-.2-.1-.4,0s-.1,0-.2,0h-.1a.3.3,0,0,0-.1.2v4.4c0,.1.1.2.1.3l.2.2h.4a.1.1,0,0,1,.1.1H159a.1.1,0,0,0-.1-.1h.5c.1-.1.2-.1.2-.2a.4.4,0,0,0,.1-.3V45.6h-.2a.1.1,0,0,0-.2,0c-.1-.1-.3,0-.4,0l-.3.2-.3.2-.2.3a.3.3,0,0,0-.1.2h-.1c0,.1,0,.1-.1.1h0V45.3h5.3Z"/><path id="Path_5326" data-name="Path 5326" class="cls-31" d="M168.1,51h.1a.1.1,0,0,0-.1.1h-2.2c0-.1,0-.1.1-.1h.3a.4.4,0,0,0,.1-.3V48.1a.4.4,0,0,1-.1-.3.8.8,0,0,0-.7-.4h-.3l-.2.3a.4.4,0,0,0-.1.3v2.3c-.1.1,0,.2,0,.3h.2c0,.1.1.1.2.1a.1.1,0,0,0,.1.1h-2.2a.1.1,0,0,1,.1-.1.1.1,0,0,0,.1-.1h.2a.4.4,0,0,0,.1-.3V45.5a.1.1,0,0,0-.1-.1h0l.4-.2h.4l.3-.2h.2v2.9c0-.1.1-.1.2-.2h1.6l.4.2.2.3a.6.6,0,0,1,.1.4c0,.1.1.2.1.4v2.3h.4A.1.1,0,0,1,168.1,51Z"/><path id="Path_5327" data-name="Path 5327" class="cls-31" d="M169.6,48.8h-.1c0,.3.1.6.1.8a.8.8,0,0,0,.2.5.5.5,0,0,0,.4.3h1.6c0,.1-.1.1-.1.2l-.2.2-.3.2h-1.8l-.6-.4a4.3,4.3,0,0,1-.4-.7,2.2,2.2,0,0,1-.1-.8,2.9,2.9,0,0,1,.2-.9,1.6,1.6,0,0,1,.4-.7,2.4,2.4,0,0,1,1.4-.5c.2-.1.4,0,.6,0l.4.3.3.3a.8.8,0,0,1,.2.4.4.4,0,0,1,.1.3.4.4,0,0,0,.1.3h-2.4Zm0-.3h1.2a.1.1,0,0,0,0-.2V48c0-.2,0-.3-.1-.4s-.1-.1-.2-.2h-.7c0,.1-.1.2-.1.3s-.1.2-.1.3v.4Z"/></g><g id="Group_4707" data-name="Group 4707"><g id="Group_4706" data-name="Group 4706"><path id="Path_5328" data-name="Path 5328" class="cls-31" d="M182.1,60.4a8.6,8.6,0,0,1,2.7.5,6.3,6.3,0,0,1,3.5,3.5,7,7,0,0,1,.5,2.5,5.8,5.8,0,0,1-.6,2.6,6,6,0,0,1-1.4,2.1,7.4,7.4,0,0,1-2.2,1.4,6.7,6.7,0,0,1-2.8.6,8.6,8.6,0,0,1-2.7-.5,6.7,6.7,0,0,1-3.5-3.5,7.4,7.4,0,0,1-.5-2.5,5.8,5.8,0,0,1,.6-2.6,6,6,0,0,1,1.4-2.1,9.1,9.1,0,0,1,2.3-1.5A8.1,8.1,0,0,1,182.1,60.4ZM182,72.8a1.5,1.5,0,0,0,1.1-.4,3.8,3.8,0,0,0,.9-1.3,12.1,12.1,0,0,0,.5-1.8,17.7,17.7,0,0,0,0-4.6,12.1,12.1,0,0,0-.5-1.8,3,3,0,0,0-.9-1.3,1.7,1.7,0,0,0-2.3,0,3,3,0,0,0-.9,1.3,9.5,9.5,0,0,0-.5,1.8,17.7,17.7,0,0,0,0,4.6,12.1,12.1,0,0,0,.5,1.8,3.8,3.8,0,0,0,.9,1.3,1.6,1.6,0,0,0,1.2.4Z"/><path id="Path_5329" data-name="Path 5329" class="cls-31" d="M212.2,71.5V65.4a4.9,4.9,0,0,0-3.8-4.8l-1.2-.2a5.1,5.1,0,0,0-3.3,1.3V60.3a12.7,12.7,0,0,1-3.8,2l-1.6.3V63l1.6.3v8.2a1.8,1.8,0,0,1-1.8,1.7v.4h7.3v-.4a1.7,1.7,0,0,1-1.7-1.7h0V63.8a2.1,2.1,0,0,1,2.3-2.2,2.2,2.2,0,0,1,2.2,2.2v7.7a1.8,1.8,0,0,1-1.7,1.7h0v.4h7.2v-.4a1.8,1.8,0,0,1-1.7-1.7Z"/><path id="Path_5330" data-name="Path 5330" class="cls-31" d="M220.5,73.5a4.9,4.9,0,0,0,2.6-1,4.2,4.2,0,0,0,1.5-3.1,4.4,4.4,0,0,0-2.4-3.8l-2.3-.6-.7-.2c-.9-.4-2.2-1.3-1.8-2.5a1.8,1.8,0,0,1,2.1-1,2.9,2.9,0,0,1,1.4,1.5,3.1,3.1,0,0,0,.5,1,2.1,2.1,0,0,0,1.1.4,1.6,1.6,0,0,0,1.5-1.4,1.8,1.8,0,0,0-1.4-1.9l-1.3-.3a7.3,7.3,0,0,0-3.6.1,4.6,4.6,0,0,0-2.3,1.8,3.2,3.2,0,0,0-.7,1.9,4.7,4.7,0,0,0,.4,1.7,3.2,3.2,0,0,0,1.3,1.5,2.7,2.7,0,0,0,1.2.6l1.6.8.7.3a1.8,1.8,0,0,1,.9,2.4,1.7,1.7,0,0,1-1.6,1.1,2.1,2.1,0,0,1-2.2-1.7,2.6,2.6,0,0,0-.2-1.5,1.5,1.5,0,0,0-2.1-.5,1.4,1.4,0,0,0-.8,1.3,1.8,1.8,0,0,0,.5,1.2c1.1,1.8,3.6,2.1,5.6,1.9Z"/><path id="Path_5331" data-name="Path 5331" class="cls-31" d="M174.6,70.9a10.1,10.1,0,0,1-6.8,2.7h-1.5a10.1,10.1,0,0,1-8.4-11.4,9.9,9.9,0,0,1,8.4-8.4h1.5a10,10,0,0,1,5.8,1.8v3.4h-.4a2.9,2.9,0,0,0-.2-.9,4.6,4.6,0,0,0-5.6-3.3,4.2,4.2,0,0,0-2.1,1.3,5.9,5.9,0,0,0-1.4,2.7,15.5,15.5,0,0,0-.5,7.4,7.1,7.1,0,0,0,8.6,5.4,6.2,6.2,0,0,0,2.2-1Z"/><g id="Group_4705" data-name="Group 4705"><path id="Path_5332" data-name="Path 5332" class="cls-31" d="M195.2,71.5V60.3a10.7,10.7,0,0,1-3.8,2l-1.5.3V63l1.5.3v8.2a1.7,1.7,0,0,1-1.7,1.7v.4H197v-.4a1.8,1.8,0,0,1-1.8-1.7Z"/></g></g></g></g><path id="Path_5333" data-name="Path 5333" class="cls-31" d="M193,54.6a2.7,2.7,0,1,0,2.6,2.6,2.6,2.6,0,0,0-2.6-2.6Zm.9,3.5h-1.7V56.4h1.7Z"/></g><path d="M338.7,0H46.1A46,46,0,0,0,0,46.1v724a46.1,46.1,0,0,0,46.1,46.1H338.7a46.1,46.1,0,0,0,46.1-46.1V46.1A46,46,0,0,0,338.7,0Zm39.5,770.1a38.9,38.9,0,0,1-3.1,15.4,39.3,39.3,0,0,1-8.4,12.5,41.2,41.2,0,0,1-12.6,8.5,40.3,40.3,0,0,1-15.4,3.1H46.1a40.3,40.3,0,0,1-15.4-3.1A41.2,41.2,0,0,1,18.1,798a39.3,39.3,0,0,1-8.4-12.5,38.9,38.9,0,0,1-3.1-15.4V46.1A38.5,38.5,0,0,1,9.7,30.7a40.9,40.9,0,0,1,8.4-12.6A40.9,40.9,0,0,1,30.7,9.7,38.5,38.5,0,0,1,46.1,6.6H85.8a6.8,6.8,0,0,1,1.8,1.3,7.1,7.1,0,0,1,1.6,2.8c.1.7.3,1.5.5,2.5s.9,4.3,1.6,6.7a19.1,19.1,0,0,0,4.7,8,18.7,18.7,0,0,0,5.5,3.8,21.9,21.9,0,0,0,8.3,1.6H277.5a21.2,21.2,0,0,0,8.3-1.6,18.7,18.7,0,0,0,5.5-3.8,19.1,19.1,0,0,0,4.7-8,57.8,57.8,0,0,0,1.6-6.7h0c.2-1,.4-1.8.5-2.5a7.1,7.1,0,0,1,1.6-2.8,4.6,4.6,0,0,1,1.8-1.3h37.2a38.5,38.5,0,0,1,15.4,3.1,40.9,40.9,0,0,1,12.6,8.4,40.9,40.9,0,0,1,8.4,12.6,38.5,38.5,0,0,1,3.1,15.4Z"/></svg>